# xmcd
#
# Track frame offsets: 
#        150
#        29310
#        55745
#        76557
#        108745
#        141702
#        171782
#        197112
#        214912
#        232845
#        266300
#        292075
#        323400
#
# Disc length: 4630 seconds
#
# Revision: 5
# Processed by: cddbd v1.5.2PL0 Copyright (c) Steve Scherf et al.
# Submitted via: ExactAudioCopy v0.95b4
#
DISCID=b612140d
DTITLE=Various Artist - North Sea Jazz 1999
DYEAR=1999
DGENRE=Jazz
TTITLE0=Regina Carter - Lady Be Good
TTITLE1=Russell Malone - Sweet Georgia Peach
TTITLE2=Herbie Hancock - Embraceable You
TTITLE3=Michiel Borstlap - Centurion
TTITLE4=Abbey Lincoln - Midnight Sun
TTITLE5=Bobby Hutcherson - The Coaster
TTITLE6=Danilo Perez - Impromptu (conversations)
TTITLE7=Vinicius Cantuaria - Vivo Isolado do Mundo
TTITLE8=Badi Assad - Ponta de Areia
TTITLE9=Maria Joao - Saris e Capulanas
TTITLE10=Bugge Wesseltoft - Eve Nin
TTITLE11=Courtney Pine - Underground
TTITLE12=Diana Krall - Let's Face The Music And Dance
EXTD=YEAR: 1999 ID3G: 8
EXTT0=
EXTT1=
EXTT2=
EXTT3=
EXTT4=
EXTT5=
EXTT6=
EXTT7=
EXTT8=
EXTT9=
EXTT10=
EXTT11=
EXTT12=
PLAYORDER=
